<?xml version="1.0" encoding="utf-8"?>
<!-- Generator: Adobe Illustrator 26.4.1, SVG Export Plug-In . SVG Version: 6.00 Build 0)  -->
<svg version="1.1" id="Layer_1" xmlns="http://www.w3.org/2000/svg" xmlns:xlink="http://www.w3.org/1999/xlink" x="0px" y="0px"
	 viewBox="0 0 693.93 163.28" style="enable-background:new 0 0 693.93 163.28;" xml:space="preserve">
<style type="text/css">
	.st0{clip-path:url(#SVGID_00000112603425134133184380000011667726890596686486_);}
	.st1{fill:#C7C8CA;}
	.st2{fill:#FDB515;}
	.st3{fill:#FFFFFF;}
	.st4{fill:#DA2128;}
</style>
<g>
	<g>
		<defs>
			<rect id="SVGID_1_" x="17.02" y="5.65" width="660.01" height="151.98"/>
		</defs>
		<clipPath id="SVGID_00000093884173287769274300000003926727304449418373_">
			<use xlink:href="#SVGID_1_"  style="overflow:visible;"/>
		</clipPath>
		<path style="clip-path:url(#SVGID_00000093884173287769274300000003926727304449418373_);" d="M143.03,90.29
			c0,0-3.44,46.12-59.98,60.97c-56.54-14.85-59.98-60.97-59.98-60.97V24.25c22.92-11.84,53.15-12.44,58.99-12.44
			c0.65,0,1,0.01,1,0.01s0.35-0.01,1-0.01c5.84,0,36.07,0.59,58.99,12.44V90.29L143.03,90.29z M145.86,18.78
			C121.69,6.28,90.13,5.65,84.05,5.65c-0.49,0-0.83,0-1,0.01c-0.17,0-0.51-0.01-1-0.01c-6.08,0-37.64,0.63-61.82,13.13L16.9,20.5
			v3.75v66.03v0.23l0.02,0.23c0.04,0.53,1.07,13.14,9.63,27.6c7.82,13.21,23.7,30.67,54.93,38.87l1.56,0.41l1.57-0.41
			c31.23-8.2,47.11-25.66,54.93-38.87c8.57-14.46,9.59-27.07,9.63-27.6l0.02-0.23v-0.23V24.25V20.5L145.86,18.78L145.86,18.78z"/>
	</g>
	<path class="st1" d="M136.51,80.91v7.97c0,0-3.07,41.11-53.46,54.34c-7.09-1.86-13.21-4.29-18.55-7.06
		c-7.77-4.03-13.84-8.82-18.55-13.78c-15.05-15.88-16.37-33.5-16.37-33.5V65.96V30.03v0c5.19-2.68,10.8-4.71,16.37-6.25
		c6.49-1.8,12.91-2.93,18.55-3.64c10.7-1.35,18.55-1.18,18.55-1.18s30.76-0.65,53.46,11.08V80.91L136.51,80.91z M83.05,11.82
		c0,0-0.35-0.01-1-0.01c-5.84,0-36.06,0.59-58.99,12.44v66.03c0,0,3.44,46.12,59.98,60.97c56.54-14.85,59.98-60.97,59.98-60.97
		V24.25c-22.92-11.84-53.15-12.44-58.99-12.44C83.4,11.81,83.05,11.82,83.05,11.82L83.05,11.82z"/>
	<path d="M64.5,63.26V20.13c-5.64,0.71-12.06,1.84-18.55,3.64v21.83L64.5,63.26L64.5,63.26z"/>
	<path class="st2" d="M45.95,23.78c-5.57,1.54-11.18,3.57-16.37,6.25l16.37,15.58V23.78L45.95,23.78z"/>
	<polygon class="st2" points="45.95,45.61 45.95,81.54 64.5,99.19 64.5,63.26 45.95,45.61 	"/>
	<polygon points="45.95,45.61 29.59,30.03 29.59,30.03 29.59,65.96 45.95,81.54 45.95,45.61 	"/>
	<path class="st2" d="M83.05,80.91V23.71v-4.76c0,0-7.85-0.16-18.55,1.18v43.13L83.05,80.91L83.05,80.91z"/>
	<polygon points="64.5,99.19 83.05,116.84 83.05,80.91 64.5,63.26 64.5,99.19 	"/>
	<path class="st3" d="M128.76,88.67h-5.69v4.22c0,4.05-2.96,7.67-6.99,8.05c-4.62,0.44-8.51-3.18-8.51-7.72v-4.56H90.8v20.5h4.22
		c4.05,0,7.67,2.96,8.05,6.99c0.44,4.62-3.18,8.52-7.72,8.52H90.8v5.69c0,4.28-3.47,7.75-7.75,7.75v5.11
		c50.4-13.23,53.46-54.34,53.46-54.34v-7.97C136.51,85.19,133.04,88.67,128.76,88.67L128.76,88.67z"/>
	<path class="st2" d="M83.05,116.84L64.5,99.19v36.98c5.34,2.77,11.46,5.2,18.55,7.06v-5.11V116.84L83.05,116.84z"/>
	<path class="st4" d="M83.05,18.95v4.76c4.28,0,7.75,3.47,7.75,7.75v5.69h4.56c4.53,0,8.16,3.89,7.72,8.51
		c-0.38,4.03-4,6.99-8.05,6.99H90.8v20.5h16.76v-4.56c0-4.53,3.89-8.16,8.51-7.72c4.03,0.38,6.99,4,6.99,8.05v4.22h5.69
		c4.28,0,7.75,3.47,7.75,7.75V30.03C113.81,18.3,83.05,18.95,83.05,18.95L83.05,18.95z"/>
	<path d="M45.95,81.54v40.85c4.71,4.97,10.78,9.75,18.55,13.78V99.19L45.95,81.54L45.95,81.54z"/>
	<path class="st2" d="M29.59,65.96v22.93c0,0,1.32,17.62,16.37,33.5V81.54L29.59,65.96L29.59,65.96z"/>
	<path class="st3" d="M128.76,73.16h-5.69v-4.22c0-4.05-2.96-7.67-6.99-8.05c-4.62-0.44-8.51,3.18-8.51,7.72v4.56H90.8v-20.5h4.22
		c4.05,0,7.67-2.96,8.05-6.99c0.44-4.62-3.18-8.51-7.72-8.51H90.8v-5.69c0-4.28-3.47-7.75-7.75-7.75v57.21h53.46
		C136.51,76.63,133.04,73.16,128.76,73.16L128.76,73.16z"/>
	<path class="st4" d="M83.05,116.84v21.28c4.28,0,7.75-3.47,7.75-7.75v-5.69h4.56c4.53,0,8.16-3.89,7.72-8.52
		c-0.38-4.03-4-6.99-8.05-6.99H90.8v-20.5h16.76v4.56c0,4.53,3.89,8.16,8.51,7.72c4.03-0.38,6.99-4,6.99-8.05v-4.22h5.69
		c4.28,0,7.75-3.47,7.75-7.75H83.05V116.84L83.05,116.84z"/>
	<path d="M244.14,154.42c-8.63,0-24.84-1.64-36.46-12.6c-7.18-6.89-15.42-18.38-15.42-46.41V70.03c0-27.09,0-31.97-0.35-37.51
		c-0.31-5.35-1.36-7.93-6.75-9.07c-1.32-0.33-4.17-0.5-5.72-0.5c-1.12,0-2.31-0.69-2.31-1.96c0-2.31,2.6-2.31,3.7-2.31
		c5.4,0,12.21,0.25,16.28,0.4c1.91,0.07,3.25,0.12,3.72,0.12c0.53,0,2.13-0.06,4.18-0.14l0.16-0.01c4.07-0.16,9.52-0.37,12.88-0.37
		c1.11,0,3.7,0,3.7,2.31c0,1.28-1.19,1.96-2.31,1.96c-1.12,0-2.12,0.17-4.11,0.5c-3.96,0.59-5.4,2.88-5.75,9.07
		c-0.35,5.54-0.35,10.42-0.35,37.51v24.35c0,26.54,6.45,36.27,12.76,42.29c8.26,7.75,15.93,9.31,25.62,9.31
		c10.11,0,20.3-4.67,26.6-12.19c6.92-8.57,9.87-21.14,9.87-42.02V70.03c0-27.09,0-31.97-0.35-37.51c-0.31-5.35-1.36-7.93-6.75-9.07
		c-1.32-0.33-4.17-0.5-5.72-0.5c-1.12,0-2.31-0.69-2.31-1.96c0-2.31,2.6-2.31,3.7-2.31c5.74,0,12.4,0.28,15.97,0.43
		c1.34,0.06,2.19,0.09,2.46,0.09c0.37,0,1.43-0.05,2.8-0.12l0.22-0.01c3.23-0.16,8.06-0.39,11.59-0.39c1.11,0,3.7,0,3.7,2.31
		c0,1.28-1.19,1.96-2.31,1.96c-1.15,0-2.15,0-4.12,0.5c-4,0.74-5.39,2.95-5.74,9.07c-0.35,5.54-0.35,10.42-0.35,37.51v18.61
		c0,33.87-8.71,45.95-16.31,52.69C267.37,153.07,253.46,154.42,244.14,154.42L244.14,154.42z"/>
	<path d="M502.89,25.38c-0.79,0-4.92,0.04-8.12,0.84c-1.39,0.31-1.39,0.6-1.39,1.02v46.61c0,0.8,0.08,0.84,0.64,1.06
		c0.96,0.14,4.04,0.63,10.27,0.63c9.72,0,11.72-0.31,15.13-4.21c3.83-4.38,6.03-10.56,6.03-16.96
		C525.45,41,519.54,25.38,502.89,25.38L502.89,25.38z M493.39,82.08c0.01,0.03-0.01,0.12-0.01,0.29v9.91c0,13.06,0,34.92,0.17,37.5
		l0.04,0.69c0.48,7.92,0.6,9.8,5.35,12.11c4.97,2.4,13.29,2.52,14.9,2.52c10.89,0,23.6-6.23,23.6-23.77
		c0-6.82-1.61-23.79-16.47-34.02c-5.69-3.85-9.89-4.37-13.95-4.88c-1.56-0.24-6.07-0.35-13.53-0.35
		C493.45,82.08,493.41,82.08,493.39,82.08L493.39,82.08z M508.98,152.51c-2.49,0-10.32-0.4-16.04-0.7l-0.71-0.04
		c-3.3-0.17-5.91-0.31-6.39-0.31c-0.24,0-1.34,0.05-2.87,0.11c-2.47,0.1-45.28,0.18-48.65,0.18c-1.11,0-3.7,0-3.7-2.31
		c0-0.98,0.71-1.96,2.31-1.96c1.25,0,3.12-0.25,5.02-0.68c0.43-0.08,2.49-0.76,1.76-5.87l-8.14-87.31l-42.8,90.83
		c-2.82,5.95-3.4,7.19-5.36,7.19c-1.73,0-2.52-1.5-5.84-7.79l-0.37-0.69c-1.89-3.57-6.86-13.27-19.79-39.23l-0.57-1.13
		c-1.65-3.29-17.88-38.12-22.11-47.6l-6.76,78.4c-0.17,2.73-0.17,5.81-0.17,8.79c0,2.16,1.59,4.05,3.78,4.49
		c2.86,0.68,5.38,0.85,6.43,0.85c1.14,0,2.31,0.67,2.31,1.79c0,2.49-2.84,2.49-4.05,2.49c-4.43,0-9.63-0.24-13.07-0.4l-0.24-0.01
		c-1.42-0.07-2.45-0.11-2.86-0.11c-0.53,0-1.88,0.06-3.61,0.15l-0.28,0.01c-3.29,0.15-7.73,0.36-10.72,0.36
		c-2.57,0-3.88-0.84-3.88-2.49c0-1.18,1.34-1.79,2.66-1.79c1.35,0,2.52,0,5.04-0.5c4.89-0.89,5.51-6.77,6.16-12.99l0.07-0.64
		l12.52-113.39c0.22-1.21,0.71-3.95,2.83-3.95c1.86,0,2.75,1.63,3.45,3.15l52.36,107.63l50.31-107.47c0.55-1.23,1.48-3.31,3.45-3.31
		c2.23,0,2.7,2.61,3.01,5.52l11.65,106.78c0.64,5.78,1.71,15.39,8.76,17.66c3.45,1.11,7.52,1.06,8.65,0.72
		c2.95-0.89,3.65-4.3,4.25-8.66c0.86-7.23,0.86-20.64,0.86-37.61V70.03c0-27.09,0-31.97-0.35-37.51c-0.32-5.35-1.36-7.93-6.75-9.07
		c-1.32-0.33-4.17-0.5-5.72-0.5c-1.32,0-2.31-0.84-2.31-1.96c0-2.31,2.59-2.31,3.7-2.31c5.75,0,13.4,0.29,17.08,0.43l0.9,0.03
		c0.9,0.03,1.49,0.06,1.67,0.06c0,0,0,0,0,0c1.75,0,4.05-0.1,6.49-0.2c3.5-0.14,7.82-0.32,12.47-0.32c28.18,0,35.7,16.98,35.7,27.01
		c0,14.21-8.15,23.11-15.59,30.89c6.99,2.43,13.82,6.77,18.85,11.99c6.85,7.1,10.48,15.79,10.48,25.12c0,9.93-4.12,19.62-11.3,26.6
		C534.7,148.28,522.95,152.51,508.98,152.51L508.98,152.51z"/>
	<path d="M636.46,154.42c-25.14,0-43.57-6.04-58.01-19.02c-14.17-12.7-21.35-30.25-21.35-52.16c0-13.72,5.19-33.57,19.75-48.13
		c12.7-12.7,30.27-18.88,53.69-18.88c4.19,0,15.05,0.2,25.38,2.1l0.49,0.09c6.34,1.17,11.78,2.17,17.14,2.5
		c1.35,0.12,3.12,0.55,3.12,2.83c0,0.6-0.08,1.26-0.2,2.26c-0.18,1.51-0.46,3.75-0.67,7.53c-0.2,3.28-0.28,7.88-0.35,11.58
		c-0.05,2.85-0.09,5.21-0.17,6.34c-0.12,1.8-0.3,4.51-2.48,4.51c-2.31,0-2.31-2.54-2.31-4.57c0-6.66-2.8-13.5-6.98-17.03
		c-5.63-4.83-18.39-9.69-34.19-9.69c-26.56,0-36.19,9.36-39.35,12.43c-13.55,12.99-15.37,29.9-15.37,44.73
		c0,16.11,6.27,32.02,17.18,43.65c11.55,12.3,27.42,19.08,44.68,19.08c18.79,0,25.33-4.05,29.6-8.42c3.51-3.68,5.68-11.1,6.19-14.12
		c0.26-1.43,0.61-3.38,2.65-3.38c0.64,0,2.14,0.34,2.14,3.53c0,1.33-2.1,16.52-3.86,22.52c-1.12,3.54-1.64,4.12-5.03,5.63
		C660.61,153.35,646.84,154.42,636.46,154.42L636.46,154.42z"/>
</g>
</svg>
